<svg width="26" height="24" viewBox="0 0 26 24" fill="none" xmlns="http://www.w3.org/2000/svg">
<path fill-rule="evenodd" clip-rule="evenodd" d="M1.7334 0.8C1.7334 0.358172 2.12142 0 2.60007 0H23.4001C23.8787 0 24.2667 0.358172 24.2667 0.8V23.2C24.2667 23.4773 24.1112 23.7348 23.8557 23.8805C23.6002 24.0263 23.2811 24.0395 23.0125 23.9155L19.9334 22.4944L16.8543 23.9155C16.6103 24.0282 16.3231 24.0282 16.0791 23.9155L13.0001 22.4944L9.92098 23.9155C9.67699 24.0282 9.3898 24.0282 9.14581 23.9155L6.06673 22.4944L2.98765 23.9155C2.71899 24.0395 2.39994 24.0263 2.14443 23.8805C1.88892 23.7348 1.7334 23.4773 1.7334 23.2V0.8ZM6.9334 8H10.4001V6.4H6.9334V8ZM13.8667 8H19.0667V6.4H13.8667V8ZM10.4001 12.8H6.9334V11.2H10.4001V12.8ZM13.8667 12.8H19.0667V11.2H13.8667V12.8ZM19.0667 17.6H13.8667V16H19.0667V17.6Z" fill="black"/>
</svg>
