<svg width="43" height="43" viewBox="0 0 43 43" fill="none" xmlns="http://www.w3.org/2000/svg">
<path d="M14.3333 15.7667C14.3333 11.8086 17.542 8.6 21.5 8.6C25.458 8.6 28.6667 11.8086 28.6667 15.7667C28.6667 19.7247 25.458 22.9333 21.5 22.9333C17.542 22.9333 14.3333 19.7247 14.3333 15.7667Z" fill="black"/>
<path fill-rule="evenodd" clip-rule="evenodd" d="M21.5 0C9.62588 0 0 9.62588 0 21.5C0 33.3741 9.62588 43 21.5 43C33.3741 43 43 33.3741 43 21.5C43 9.62588 33.3741 0 21.5 0ZM2.86667 21.5C2.86667 11.2091 11.2091 2.86667 21.5 2.86667C31.7909 2.86667 40.1333 11.2091 40.1333 21.5C40.1333 26.8021 37.9188 31.5869 34.3643 34.9801C33.9314 29.838 29.6206 25.8 24.3667 25.8H18.6333C13.3794 25.8 9.06856 29.838 8.63574 34.9801C5.08118 31.5869 2.86667 26.8021 2.86667 21.5Z" fill="black"/>
</svg>
