<svg width="26" height="24" viewBox="0 0 26 24" fill="none" xmlns="http://www.w3.org/2000/svg">
<path fill-rule="evenodd" clip-rule="evenodd" d="M24.2667 20L24.2667 16H25.0132C25.5582 16 26 15.5922 26 15.0891V8.91087C26 8.4078 25.5582 7.99998 25.0132 7.99998H24.2667V3.99998C24.2667 2.67449 23.1026 1.59998 21.6667 1.59998H2.6C1.16406 1.59998 0 2.67449 0 3.99997V20C0 21.3255 1.16406 22.4 2.6 22.4H21.6667C23.1026 22.4 24.2667 21.3255 24.2667 20ZM24.2667 9.59998V14.4L16.4667 14.4C15.0307 14.4 13.8667 13.3255 13.8667 12C13.8667 10.6745 15.0307 9.59998 16.4667 9.59998H24.2667Z" fill="black"/>
</svg>
